Fly_normalized_Motion_pl01
version=1
nRows=18
nColumns=43
inDegrees=yes
endheader
time		pelvis_tilt		pelvis_list		pelvis_rotation		pelvis_tx		pelvis_ty		pelvis_tz		hip_flexion_r		hip_adduction_r		hip_rotation_r		knee_angle_r		ankle_angle_r		subtalar_angle_r		mtp_angle_r		hip_flexion_l		hip_adduction_l		hip_rotation_l		knee_angle_l		ankle_angle_l		subtalar_angle_l		mtp_angle_l		lumbar_extension		lumbar_bending		lumbar_rotation		neck_flexion		neck_lateral_bending		neck_rotation		arm_flex_r		arm_add_r		arm_rot_r		elbow_flex_r		pro_sup_r		wrist_flex_r		wrist_dev_r		hand_finger_flex_r		arm_flex_l		arm_add_l		arm_rot_l		elbow_flex_l		pro_sup_l		wrist_flex_l		wrist_dev_l		hand_finger_flex_l		
0.367500		-0.568184		-10.523628		88.072127		-0.010815		1.977064		1.435130		37.969476		-7.911255		2.669929		-96.932008		-10.794780		-5.673650		10.362473		35.404482		-1.526481		0.016261		-99.177315		-9.070182		-17.827540		15.057639		-39.762449		-1.717970		3.913165		3.734889		0.915278		-3.361311		131.840441		-7.882953		42.696699		51.026202		71.476642		-31.908419		-3.935163		16.231673		122.764136		-5.143881		26.484135		60.113350		106.455692		-25.154942		11.992919		55.565506		
0.372020		-0.501984		-10.484346		88.055207		-0.011015		1.977252		1.428851		38.826753		-7.873439		2.266623		-97.164099		-11.155746		-7.443582		9.569549		36.261272		-1.630505		-0.030399		-99.398008		-9.620416		-18.503303		14.804474		-39.948091		-1.706465		3.928609		3.730328		1.092144		-3.276705		131.293754		-8.049617		42.511511		51.338110		71.677874		-32.441848		-4.066449		15.947185		122.404033		-5.357263		26.749734		60.188692		106.816235		-25.065255		12.028236		55.535411		
0.376540		-0.464751		-10.229562		88.008852		-0.011329		1.977749		1.422364		39.419234		-7.886841		1.993210		-97.340628		-11.039235		-8.130177		9.229148		36.841495		-1.695394		-0.093867		-99.566242		-9.960072		-18.846621		14.675369		-40.405006		-1.672506		4.008796		3.914810		0.935690		-3.189620		130.756430		-8.340757		42.417250		51.858139		71.810131		-32.611458		-4.273167		15.873896		121.965952		-5.647695		26.896247		60.395196		106.993742		-25.018760		12.002657		55.549600		
0.381061		-0.369474		-10.098723		87.965330		-0.011461		1.977995		1.415974		40.127960		-7.769335		1.659519		-97.456738		-10.762917		-8.999455		8.656000		37.624151		-1.748420		-0.114273		-99.808234		-10.631161		-19.807514		14.359817		-40.744305		-1.603748		4.049607		4.094130		0.834622		-3.128451		130.010850		-8.559647		42.108739		52.493113		72.085512		-32.958000		-4.642198		15.765936		121.447586		-6.052931		27.071394		60.746897		107.335704		-24.983303		11.934483		55.581328		
0.385581		-0.253258		-10.135894		88.014386		-0.011728		1.977689		1.409890		41.115795		-7.603459		1.355664		-97.599915		-10.778585		-9.669643		7.623570		38.687878		-1.721388		-0.167750		-100.157803		-11.559507		-21.904057		13.413649		-40.860290		-1.448419		3.998019		4.042546		0.802018		-2.953942		129.126097		-8.599127		41.619968		52.873526		72.772760		-33.439282		-5.061461		15.707854		120.799917		-6.447084		27.156713		61.033717		107.876425		-24.958530		11.864872		55.659644		
0.390101		-0.244800		-10.052441		87.922642		-0.012003		1.977429		1.403624		42.007650		-7.511821		1.238716		-97.692872		-10.529271		-9.576185		6.665911		39.566797		-1.640566		-0.439106		-100.497506		-12.089720		-23.735882		11.777179		-41.129667		-1.426550		4.001331		4.098436		0.603421		-2.841123		128.217965		-8.669347		41.107030		53.322483		73.725475		-33.707103		-5.358654		15.850400		120.095378		-6.820111		27.087606		61.360477		108.252129		-24.851564		11.787677		55.839786		
0.394621		-0.268607		-9.823209		87.772495		-0.012247		1.977266		1.397274		42.779008		-7.364504		1.269412		-97.731069		-10.316099		-9.206989		6.106926		40.251416		-1.548116		-0.765092		-100.767179		-12.289030		-25.123167		9.749095		-41.585679		-1.463972		4.019538		4.206933		0.426863		-2.703449		127.310835		-8.792652		40.641836		53.863241		74.693935		-33.968004		-5.566654		16.024520		119.381721		-7.198436		26.970688		61.700447		108.442573		-24.726994		11.734225		56.031292		
0.399141		-0.507695		-9.551328		87.623494		-0.012637		1.977059		1.390869		43.544418		-7.444081		1.416899		-97.724495		-10.137280		-8.806017		5.496987		40.874666		-1.259045		-1.232608		-100.885838		-11.892015		-25.811360		4.376700		-42.111620		-1.662256		3.903347		4.492308		0.177082		-2.592863		126.355917		-9.015253		40.071701		54.522372		76.173324		-33.961863		-5.373410		16.662936		118.671146		-7.531560		26.852648		62.025507		108.758964		-24.557211		11.792307		56.280338		
0.403662		-0.482825		-9.164718		87.498969		-0.012703		1.976896		1.384334		44.088258		-7.208109		1.423009		-97.573588		-9.944777		-8.399938		5.296555		41.357397		-1.294570		-1.470328		-100.882118		-11.732764		-26.232625		1.699289		-42.759549		-1.690664		3.944569		4.678824		0.038646		-2.486054		125.399329		-9.336194		39.771714		55.215538		76.857681		-34.106826		-5.484552		16.910309		117.873707		-7.919562		26.768066		62.423362		108.846897		-24.497140		11.791110		56.410964		
0.408182		-0.308761		-8.772140		87.393093		-0.012643		1.976668		1.377801		44.565186		-6.833462		1.307806		-97.284010		-9.748783		-7.887970		5.419403		41.814120		-1.517388		-1.568514		-100.704696		-11.905440		-26.693989		1.406521		-43.428782		-1.607681		4.104916		4.901666		-0.118696		-2.378423		124.411613		-9.707422		39.617385		55.914645		77.014724		-34.403352		-5.832072		16.839031		117.034318		-8.272350		26.637221		62.757897		108.818549		-24.545677		11.796753		56.442597		
0.412702		-0.092952		-8.473952		87.223094		-0.012502		1.975993		1.371346		45.173556		-6.382733		1.235978		-96.994621		-9.388612		-6.965352		5.745927		42.382928		-1.806818		-1.639744		-100.392629		-12.417533		-27.501651		0.767499		-43.963420		-1.550901		4.384965		5.008701		-0.156961		-2.299844		123.289858		-10.050826		39.311601		56.524288		77.415415		-34.886324		-6.111412		16.778294		116.066028		-8.494784		26.369509		63.039401		108.969252		-24.707538		11.949084		56.448320		
0.417222		-0.022946		-8.106366		87.162023		-0.012582		1.975466		1.364912		45.669581		-6.151527		1.103595		-96.534801		-9.313627		-6.623349		5.886732		42.840572		-1.939233		-1.733347		-99.871927		-12.684249		-27.639279		0.527768		-44.634293		-1.528860		4.387797		5.237166		-0.333752		-2.228841		122.262045		-10.551283		39.265724		57.269892		77.616965		-34.989876		-6.319011		16.825048		115.213340		-8.881478		26.273026		63.306650		109.040719		-24.794297		11.968337		56.467018		
0.421742		0.127057		-7.763001		87.048839		-0.012533		1.974626		1.358407		46.197686		-5.829219		0.941087		-96.064231		-9.206115		-6.109715		6.111486		43.301327		-2.154013		-1.778659		-99.284193		-13.053829		-27.871798		0.222020		-45.253604		-1.504672		4.534225		5.396387		-0.375952		-2.172648		121.057632		-11.049496		39.010547		58.037870		77.884090		-35.230542		-6.513102		16.855954		114.205120		-9.165720		26.047583		63.608106		109.130987		-24.980337		12.025360		56.458940		
0.426263		0.244792		-7.428369		86.972515		-0.012620		1.973644		1.351861		46.687715		-5.552763		0.789079		-95.469685		-9.160462		-5.700980		6.304618		43.749393		-2.315404		-1.852406		-98.618472		-13.368504		-28.000327		-0.007960		-45.851992		-1.477596		4.624093		5.570522		-0.422267		-2.124046		119.826632		-11.585781		38.836249		58.726688		78.123866		-35.430661		-6.666043		16.893610		113.127335		-9.447124		25.855201		63.898099		109.149494		-25.115096		12.079084		56.478814		
0.430783		0.360846		-7.100384		86.887253		-0.012619		1.972384		1.345242		47.196790		-5.280474		0.635729		-94.881968		-9.146144		-5.272919		6.546371		44.189872		-2.461414		-1.908857		-97.900498		-13.719188		-28.093001		-0.255603		-46.432391		-1.467113		4.731081		5.725585		-0.446738		-2.081418		118.499946		-12.152183		38.609468		59.454414		78.408256		-35.694938		-6.782738		16.929063		111.936747		-9.700681		25.575692		64.253532		109.097562		-25.221037		12.165393		56.545807		
0.435303		0.437356		-6.770982		86.822296		-0.012790		1.970792		1.338797		47.712689		-5.054124		0.509068		-94.252069		-9.126076		-4.978534		6.759483		44.630523		-2.523096		-1.959057		-97.120014		-13.957204		-28.101096		-0.435774		-46.997384		-1.451890		4.760603		5.950993		-0.450974		-2.067740		117.302205		-12.599904		38.541950		59.785606		78.617401		-35.895497		-6.761523		16.960959		110.844652		-9.936437		25.408228		64.304401		109.027643		-25.227678		12.290815		56.642359		
0.439823		0.523969		-6.538879		86.738506		-0.012940		1.969327		1.332175		48.218978		-4.824375		0.386191		-93.364006		-9.168344		-4.490591		7.230727		45.116239		-2.634582		-2.031204		-96.182780		-14.417263		-27.972028		-0.759097		-47.506933		-1.439679		4.855313		6.062360		-0.471392		-2.043823		115.802060		-13.262225		38.222158		60.677946		79.038835		-36.305883		-6.722753		17.022279		109.479938		-10.200886		24.957964		64.780830		108.878002		-25.163444		12.475105		56.923089		
0.444343		0.582741		-6.210271		86.708855		-0.013123		1.967549		1.325348		48.643194		-4.622934		0.261903		-92.551182		-9.287140		-4.203373		7.538377		45.457492		-2.659470		-2.032013		-95.161936		-14.810594		-27.582225		-0.903208		-48.075087		-1.417519		4.858220		6.281614		-0.529459		-2.029151		114.334496		-13.940320		38.078226		61.370112		79.191283		-36.538653		-6.707821		17.069556		108.123209		-10.564031		24.726163		65.178717		108.806374		-25.054746		12.535816		57.193768		
